<mxfile host="65bd71144e">
    <diagram id="CT3pmJMaLkZQJcGl8zX9" name="Page-1">
        <mxGraphModel dx="1066" dy="790" grid="1" gridSize="10" guides="1" tooltips="1" connect="1" arrows="1" fold="1" page="1" pageScale="1" pageWidth="850" pageHeight="1100" background="#ffffff" math="0" shadow="0">
            <root>
                <mxCell id="0"/>
                <mxCell id="1" parent="0"/>
                <mxCell id="xHo09k04qp6gYlBW3EUl-1" value="Felhasználó" style="html=1;outlineConnect=0;whiteSpace=wrap;fillColor=#ffff99;verticalLabelPosition=bottom;verticalAlign=top;align=center;shape=mxgraph.archimate3.actor;" parent="1" vertex="1">
                    <mxGeometry x="250" y="170" width="50" height="95" as="geometry"/>
                </mxCell>
                <mxCell id="xHo09k04qp6gYlBW3EUl-2" value="Admin&lt;br&gt;" style="html=1;outlineConnect=0;whiteSpace=wrap;fillColor=#ffff99;verticalLabelPosition=bottom;verticalAlign=top;align=center;shape=mxgraph.archimate3.actor;" parent="1" vertex="1">
                    <mxGeometry x="250" y="350" width="50" height="95" as="geometry"/>
                </mxCell>
                <mxCell id="xHo09k04qp6gYlBW3EUl-4" value="Belépés, regisztráció" style="ellipse;whiteSpace=wrap;html=1;" parent="1" vertex="1">
                    <mxGeometry x="395" y="130" width="110" height="50" as="geometry"/>
                </mxCell>
                <mxCell id="xHo09k04qp6gYlBW3EUl-5" value="" style="endArrow=classic;html=1;rounded=0;entryX=0;entryY=0.5;entryDx=0;entryDy=0;" parent="1" source="xHo09k04qp6gYlBW3EUl-1" target="xHo09k04qp6gYlBW3EUl-4" edge="1">
                    <mxGeometry width="50" height="50" relative="1" as="geometry">
                        <mxPoint x="470" y="330" as="sourcePoint"/>
                        <mxPoint x="520" y="280" as="targetPoint"/>
                    </mxGeometry>
                </mxCell>
                <mxCell id="xHo09k04qp6gYlBW3EUl-6" value="" style="endArrow=classic;html=1;rounded=0;entryX=0;entryY=0.5;entryDx=0;entryDy=0;exitX=1;exitY=0.45;exitDx=0;exitDy=0;exitPerimeter=0;" parent="1" source="xHo09k04qp6gYlBW3EUl-1" target="xHo09k04qp6gYlBW3EUl-8" edge="1">
                    <mxGeometry width="50" height="50" relative="1" as="geometry">
                        <mxPoint x="310" y="223.62068965517233" as="sourcePoint"/>
                        <mxPoint x="420" y="105" as="targetPoint"/>
                    </mxGeometry>
                </mxCell>
                <mxCell id="xHo09k04qp6gYlBW3EUl-8" value="CAFF feltölt, letölt (megvesz), keres" style="ellipse;whiteSpace=wrap;html=1;" parent="1" vertex="1">
                    <mxGeometry x="380" y="200" width="130" height="60" as="geometry"/>
                </mxCell>
                <mxCell id="xHo09k04qp6gYlBW3EUl-9" value="" style="endArrow=block;html=1;rounded=0;endFill=0;endSize=16;" parent="1" source="xHo09k04qp6gYlBW3EUl-2" edge="1">
                    <mxGeometry width="50" height="50" relative="1" as="geometry">
                        <mxPoint x="400" y="400" as="sourcePoint"/>
                        <mxPoint x="275" y="290" as="targetPoint"/>
                    </mxGeometry>
                </mxCell>
                <mxCell id="xHo09k04qp6gYlBW3EUl-10" value="Adat töröl, módosít" style="ellipse;whiteSpace=wrap;html=1;" parent="1" vertex="1">
                    <mxGeometry x="385" y="385" width="130" height="60" as="geometry"/>
                </mxCell>
                <mxCell id="xHo09k04qp6gYlBW3EUl-11" value="" style="endArrow=classic;html=1;rounded=0;entryX=0;entryY=0.5;entryDx=0;entryDy=0;exitX=1;exitY=0.45;exitDx=0;exitDy=0;exitPerimeter=0;" parent="1" source="xHo09k04qp6gYlBW3EUl-2" target="xHo09k04qp6gYlBW3EUl-10" edge="1">
                    <mxGeometry width="50" height="50" relative="1" as="geometry">
                        <mxPoint x="310" y="222.75" as="sourcePoint"/>
                        <mxPoint x="420" y="270" as="targetPoint"/>
                    </mxGeometry>
                </mxCell>
                <mxCell id="xHo09k04qp6gYlBW3EUl-12" value="CAFF megjegyzést fűz" style="ellipse;whiteSpace=wrap;html=1;" parent="1" vertex="1">
                    <mxGeometry x="385" y="280" width="120" height="60" as="geometry"/>
                </mxCell>
                <mxCell id="xHo09k04qp6gYlBW3EUl-13" value="" style="endArrow=classic;html=1;rounded=0;entryX=0;entryY=0.333;entryDx=0;entryDy=0;exitX=1;exitY=0.45;exitDx=0;exitDy=0;exitPerimeter=0;entryPerimeter=0;" parent="1" source="xHo09k04qp6gYlBW3EUl-1" target="xHo09k04qp6gYlBW3EUl-12" edge="1">
                    <mxGeometry width="50" height="50" relative="1" as="geometry">
                        <mxPoint x="310" y="222.75" as="sourcePoint"/>
                        <mxPoint x="420" y="250" as="targetPoint"/>
                    </mxGeometry>
                </mxCell>
            </root>
        </mxGraphModel>
    </diagram>
    <diagram id="ACUpr-iOnWurWZ2OoZjW" name="Page-2">
        <mxGraphModel dx="1066" dy="438" grid="1" gridSize="10" guides="1" tooltips="1" connect="1" arrows="1" fold="1" page="1" pageScale="1" pageWidth="850" pageHeight="1100" math="0" shadow="0">
            <root>
                <mxCell id="bILieolWCyF__O23B1g3-0"/>
                <mxCell id="bILieolWCyF__O23B1g3-1" parent="bILieolWCyF__O23B1g3-0"/>
            </root>
        </mxGraphModel>
    </diagram>
</mxfile>